<svg width="23" height="23" viewBox="0 0 23 23" fill="none" xmlns="http://www.w3.org/2000/svg">
<path d="M16.2916 1.91666H6.70829C4.06193 1.91666 1.91663 4.06196 1.91663 6.70832V16.2917C1.91663 18.938 4.06193 21.0833 6.70829 21.0833H16.2916C18.938 21.0833 21.0833 18.938 21.0833 16.2917V6.70832C21.0833 4.06196 18.938 1.91666 16.2916 1.91666Z" stroke="white" stroke-width="2" stroke-linecap="round" stroke-linejoin="round"/>
<path d="M15.3333 10.8963C15.4516 11.6938 15.3154 12.5084 14.944 13.2241C14.5727 13.9398 13.9851 14.5201 13.2649 14.8826C12.5447 15.2451 11.7285 15.3713 10.9325 15.2432C10.1364 15.1151 9.40102 14.7393 8.83089 14.1691C8.26076 13.599 7.88491 12.8636 7.75682 12.0676C7.62872 11.2715 7.7549 10.4553 8.1174 9.73512C8.4799 9.01492 9.06027 8.42735 9.77595 8.056C10.4916 7.68464 11.3062 7.54841 12.1038 7.66668C12.9173 7.78732 13.6705 8.16642 14.252 8.74797C14.8336 9.32953 15.2127 10.0827 15.3333 10.8963Z" stroke="white" stroke-width="2" stroke-linecap="round" stroke-linejoin="round"/>
<path d="M16.7709 6.22916H16.7809" stroke="white" stroke-width="2" stroke-linecap="round" stroke-linejoin="round"/>
</svg>
