<svg width="23" height="20" viewBox="0 0 23 20" fill="none" xmlns="http://www.w3.org/2000/svg">
<path d="M19.6426 0.00515485C16.4533 -0.110081 14.299 1.70703 13.1625 5.42791C13.747 5.16791 14.3153 5.05172 14.8654 5.05172C16.0336 5.05172 16.5501 5.71552 16.4121 7.03454C16.3431 7.83357 15.8295 8.99545 14.8673 10.524C13.9004 12.0525 13.1778 12.8182 12.6967 12.8182C11.2382 12.8182 10.3613 5.88123 10.0642 3.98698C9.6512 1.3537 8.55009 0.122295 6.76092 0.294673C5.11836 0.449908 2.25204 3.3889 0 5.38124L1.08194 6.78312C2.11213 6.05742 2.71299 5.69361 2.88453 5.69361C4.67754 5.69361 5.54577 11.7573 6.9382 16.2667C7.87256 18.7553 8.99283 20 10.3431 20C12.5127 20 15.1558 17.9581 18.2875 13.8725C21.311 9.96115 22.8769 6.87835 22.9775 4.62983L22.99 4.6203C23.1184 1.60608 22.0116 0.0632489 19.6426 0.00515485V0.00515485Z" fill="white"/>
</svg>
